<?xml version="1.0" encoding="UTF-8"?>
<svg id="Calque_2" data-name="Calque 2" xmlns="http://www.w3.org/2000/svg" viewBox="0 0 336.31 208.52">
  <defs>
    <style>
      .cls-1 {
        fill: #1c1f20;
      }

      .cls-1, .cls-2 {
        stroke-width: 0px;
      }

      .cls-2 {
        fill: none;
      }
    </style>
  </defs>
  <g>
    <path class="cls-1" d="M65.54,96.09v33.03c.24,1.19,1.07,1.91,2.5,2.14,1.07.24,2.14.36,3.21.36h1.07v.95h-21.87v-.95h.36c.84,0,1.66,0,2.62-.12.95-.13,1.78-.36,2.62-.72.71-.35,1.07-.94,1.07-1.89V54.16c0-.94-.36-1.66-1.07-2.01-.84-.36-1.66-.6-2.62-.72-.95-.12-1.78-.12-2.62-.12h-.36v-.84h22.69c7.72,0,13.79,1.2,18.3,3.69,4.39,2.5,7.6,5.59,9.5,9.39,1.91,3.8,2.86,7.84,2.86,12.11-.13,6.53-2.02,12-5.71,16.28-3.8,4.39-8.67,7.24-14.5,8.56,3.45,2.49,6.18,5.22,8.44,8.43s4.16,6.65,5.94,10.33c1.55,3.44,3.09,6.3,4.64,8.56,1.53,2.37,3.44,3.56,5.7,3.69v1.07h-1.78c-5.82,0-10.1-1.55-12.83-4.64s-4.99-7.01-6.77-11.64c-.48-1.31-1.07-2.62-1.66-3.93-1.79-4.27-4.16-7.95-7.14-11.04-2.96-3.09-6.53-4.87-10.93-5.23h-1.66ZM70.52,95.39c1.55.12,3.21.48,5,1.07,2.01.84,4.03,1.66,5.94,2.73.59.36,1.07.59,1.42.95,4.87-1.91,8.2-5.12,10.1-9.51,1.89-4.39,2.85-9.02,2.85-14.01,0-6.07-1.55-11.4-4.51-16.04-1.79-2.85-4.16-5.1-7.13-6.77-2.98-1.66-6.53-2.5-10.46-2.5-.71,0-1.42,0-2.26.12h-5.94v43.84c1.79,0,3.45,0,4.99.12h0Z"/>
    <path class="cls-1" d="M116.6,91.83c-4.15,3.21-6.29,7.96-6.65,14.26.12,1.66.36,2.96.59,3.8.13.94.48,1.78.84,2.6.35.84.83,2.02,1.66,3.93,1.66,3.44,3.69,6.29,6.06,8.54,3.69,3.45,7.84,5.23,12.59,5.35,3.69,0,7.13-1.07,10.7-3.08,4.17-2.35,7.44-6.59,9.3-10.93,2.36-5.49,4.17-11.47,5.64-17.26.38-1.49.73-2.98,1.21-4.44,1.46-4.37,4.1-8.24,6.72-12.04-.29,1.89-1.44,3.52-2.44,5.15-3.36,5.53-5.12,11.85-6.85,18.08-1.55,5.59-2.63,10.9-5.97,15.78-2.69,3.93-6.39,7.05-10.82,8.85-3.57,1.43-7.13,2.14-10.7,2.14-2.37,0-5.7-.59-9.86-1.66-4.15-1.07-8.2-4.51-12.11-10.33-1.55-2.49-2.85-5.22-3.69-8.43-.95-3.09-1.43-6.78-1.43-10.93,0-6.3,1.31-11.76,3.8-16.64,2.5-4.87,6.07-8.56,10.94-11.17,4.51-2.37,8.91-3.56,13.42-3.56h.84c7.24.23,13.3,3.09,18.17,8.67.48.59,1.07,1.55,1.91,2.85.71,1.31,1.19,2.62,1.42,4.16,0,1.07-.59,1.55-1.78,1.66h-18.65c-5.82,0-10.7,1.55-14.86,4.63v.02ZM111.61,96.11c.95-1.78,2.26-3.44,4.05-4.75,1.78-1.3,3.44-2.37,4.74-2.96,1.31-.59,2.5-1.07,3.8-1.3,2.38-.6,5.71-.95,9.99-.95h9.97c-2.85-6.3-7.13-10.7-12.71-12.95-2.14-.84-4.16-1.3-6.18-1.3-3.92,0-7.48,1.66-10.93,4.74-2.49,2.62-4.28,6.3-5.35,11.17-.59,2.37-.83,4.99-.83,7.6s.23,5.46.83,8.43c.84-3.2,1.67-5.81,2.62-7.72h0Z"/>
    <path class="cls-1" d="M194.93,84.82c0-4.87-1.19-8.07-3.69-9.73-1.78-1.31-4.03-1.91-6.53-1.91-.94,0-1.78.12-2.73.23-6.65,1.31-12.23,4.87-16.87,10.94,0,5.58,0,11.28-.12,16.98v27.8c.23,1.19.95,1.91,2.14,2.14,1.19.36,2.37.48,3.57.48h1.06v.83h-21.74v-.83h.84c1.3,0,2.5-.12,3.8-.48s1.89-1.07,2.02-2.26v-45.39c0-2.01-.72-3.32-2.02-4.03-.71-.36-1.55-.48-2.37-.48-.72,0-1.43.12-2.27.36v-.95l14.26-6.65h.83v10.68c2.73-3.08,5.82-5.7,9.39-7.72,4.03-2.37,8.43-3.69,13.18-3.8h.48c3.44,0,6.53.84,9.27,2.37,2.14,1.2,3.69,2.74,4.63,4.52.84,1.89,1.31,4.03,1.31,6.42,0,7.48,0,15.08-.13,22.56v22.22c.24,1.3,1.07,2.02,2.5,2.26,1.43.24,2.73.36,3.92.36h.36v.83h-21.74v-.83h.36c.83,0,1.66,0,2.6-.12.95-.13,1.79-.36,2.62-.72.71-.35,1.07-1.07,1.07-1.89v-44.2h0Z"/>
    <path class="cls-1" d="M237.06,132.21c-1.43.24-2.86.36-4.39.36-2.5,0-5.46-.48-8.67-1.55-3.32-1.07-5.94-3.09-7.96-6.06-1.55-2.62-2.26-5.23-2.26-7.96v-44.55h-7.25v-.95h1.91c8.2-.23,12.47-4.27,12.83-12.23h.83v11.07h6.03l-.13,2.08s-3.79.12-5.89.04v45.03c0,4.99.95,8.56,2.98,10.7,2.01,2.26,4.39,3.44,7.13,3.56h1.3c2.26,0,4.39-.47,6.65-1.53,2.14-1.07,3.69-2.5,4.75-4.41l.84.95c-1.79,2.98-4.75,4.75-8.67,5.46h-.03Z"/>
    <path class="cls-1" d="M249.01,71.35l-.94-.12c-.36,0-.72.12-1.19.12-.6.13-1.07.24-1.43.48-.24.24-.48.48-.48.95l.12.48,18.89,54.17,16.51-54.06c0-.23.13-.35.13-.59,0-.36-.24-.71-.59-.95-.36-.23-.84-.35-1.43-.48-.59-.12-1.19-.12-1.78-.12-.13.12-.36.12-.48.12v-.71h9.5l-.23.71c-.84,0-1.55.13-2.26.36-.84.36-1.31.84-1.66,1.66l-17,55.6-6.77,22.22c-.84,3.2-2.14,5.81-3.69,7.6-1.55,1.78-4.16,2.73-7.84,2.73h-.24c-4.03,0-7.36-1.79-10.09-5.35l5.34-6.06v1.3c0,2.37.48,4.28,1.67,5.94,1.07,1.66,2.73,2.62,4.74,2.73,2.26,0,4.16-.71,5.71-2.26,1.55-2.02,2.62-4.16,3.21-6.53l1.07-3.57,4.99-16.28c-.59,0-1.19,0-1.78-.12h-4.75l-20.32-57.98c-.47-1.07-1.19-1.66-2.14-1.89-1.07-.13-2.01-.24-3.08-.24-.24.12-.48.12-.72.12v-.71h19.14v.71h-.13v.02Z"/>
    <path class="cls-1" d="M156.06,103.82c.13-.18.27-.36.4-.54"/>
  </g>
  <rect class="cls-2" x="151.16" y="154.52" width="47" height="61" transform="translate(359.68 10.36) rotate(90)"/>
</svg>