<?xml version="1.0" encoding="UTF-8"?>
<svg id="Calque_2" data-name="Calque 2" xmlns="http://www.w3.org/2000/svg" viewBox="0 0 307.44 254.88">
  <defs>
    <style>
      .cls-1 {
        fill: #1c1f20;
        stroke-width: 0px;
      }

      .cls-2 {
        fill: none;
        stroke: #1c1f20;
        stroke-miterlimit: 10;
        stroke-width: 5.11px;
      }
    </style>
  </defs>
  <path class="cls-1" d="M285.7,86.87h-72.99c-2.39,30.5-27.87,54.45-58.99,54.45s-56.6-23.99-58.99-54.45H21.74c-.24,3.1-.34,6.3-.34,9.47,0,73.09,59.26,132.32,132.32,132.32s132.32-59.26,132.32-132.32c0-3.17-.1-6.37-.34-9.47h0Z"/>
  <path class="cls-2" d="M173.62,26.38c22.93,8.14,39.29,30.06,39.29,55.75,0,1.6-.07,3.17-.2,4.74-2.39,30.5-27.87,54.45-58.99,54.45s-56.6-23.99-58.99-54.45c-.17-1.57-.2-3.14-.2-4.74,0-25.69,14.96-47.78,37.86-55.92M174.44,26.59c14.72,7.19,23.68,23.82,23.68,41.34,0,6.78-1.5,13.22-4.26,18.95-7.09,15.06-22.39,25.46-40.14,25.46s-33.02-10.39-40.14-25.46c-2.73-5.76-4.23-12.17-4.23-18.95,0-17.48,8.35-34.52,23.04-41.71"/>
</svg>